<svg xmlns="http://www.w3.org/2000/svg" viewBox="0 0 100 100" width="100" height="100">
  <path d="M50 5 L55 20 L70 15 L65 28 L85 30 L75 42 L95 50 L75 58 L85 70 L65 72 L70 85 L55 80 L50 95 L45 80 L30 85 L35 72 L15 70 L25 58 L5 50 L25 42 L15 30 L35 28 L30 15 L45 20 Z" fill="#FFB300" stroke="#FF8F00" stroke-width="2" stroke-linejoin="round"/>
  
  <circle cx="50" cy="50" r="26" fill="#FFD54F" stroke="#FF8F00" stroke-width="2"/>
  
  <circle cx="41" cy="44" r="3.5" fill="#424242"/>
  <circle cx="59" cy="44" r="3.5" fill="#424242"/>
  
  <path d="M 43 53 Q 50 60 55 53" stroke="#424242" stroke-width="2.5" fill="transparent" stroke-linecap="round"/>
  
  <g transform="rotate(-15, 52, 54)">
    <rect x="52" y="53" width="22" height="5" rx="1" fill="#795548" stroke="#4E342E" stroke-width="1"/>
    <rect x="56" y="53" width="4" height="5" fill="#D4AF37"/>
    <circle cx="75" cy="55.5" r="2.5" fill="#FF5252"/>
    <circle cx="75" cy="55.5" r="1.5" fill="#FFEB3B"/>
  </g>
  
  <path d="M 78 48 Q 82 42 77 36 T 80 28" stroke="#BDBDBD" stroke-width="1.5" fill="transparent" stroke-linecap="round"/>
  <path d="M 83 50 Q 88 44 84 38 T 88 30" stroke="#E0E0E0" stroke-width="1.5" fill="transparent" stroke-linecap="round"/>
</svg>
